<svg xmlns="http://www.w3.org/2000/svg" xmlns:xlink="http://www.w3.org/1999/xlink" viewBox="140 610 1185 305" preserveAspectRatio="xMidYMid meet" version="1.0"><defs><g/><clipPath id="01a34dc6a6"><path d="M 1036.503906 624 L 1166.253906 624 L 1166.253906 758 L 1036.503906 758 Z M 1036.503906 624 " clip-rule="nonzero"/></clipPath><clipPath id="0dbfd49444"><path d="M 1177.863281 768.070312 L 1269 768.070312 L 1269 876.070312 L 1177.863281 876.070312 Z M 1177.863281 768.070312 " clip-rule="nonzero"/></clipPath><clipPath id="618819e571"><path d="M 1075 768.070312 L 1166.253906 768.070312 L 1166.253906 875.921875 L 1075 875.921875 Z M 1075 768.070312 " clip-rule="nonzero"/></clipPath><clipPath id="11213d31f2"><path d="M 1177.800781 623.921875 L 1308.003906 623.921875 L 1308.003906 757.421875 L 1177.800781 757.421875 Z M 1177.800781 623.921875 " clip-rule="nonzero"/></clipPath><clipPath id="a13be4e93a"><rect x="0" width="877" y="0" height="213"/></clipPath></defs><g clip-path="url(#01a34dc6a6)"><path fill="#179d2e" d="M 1108.492188 757.105469 L 1104.851562 731.082031 C 1104.632812 729.449219 1105.773438 727.929688 1107.457031 727.710938 L 1109.902344 727.441406 L 1115.769531 726.734375 L 1135.058594 724.398438 L 1102.949219 724.398438 C 1101.96875 724.398438 1101.101562 723.691406 1100.9375 722.714844 L 1100.285156 718.910156 C 1100.070312 717.660156 1101.046875 716.519531 1102.296875 716.519531 L 1123.429688 716.519531 L 1110.71875 686.476562 C 1110.066406 684.898438 1110.773438 683.050781 1112.402344 682.402344 C 1113.976562 681.75 1115.824219 682.453125 1116.53125 684.085938 C 1116.53125 684.140625 1116.585938 684.195312 1116.585938 684.246094 L 1127.941406 716.574219 L 1152.660156 716.574219 C 1154.019531 716.574219 1154.996094 717.824219 1154.671875 719.128906 L 1153.910156 722.386719 C 1153.691406 723.3125 1152.824219 724.019531 1151.898438 724.019531 L 1149.074219 724.019531 L 1144.132812 757.214844 L 1167.003906 757.214844 L 1167.003906 624.105469 L 1036.503906 726.953125 L 1036.503906 745.804688 L 1075.945312 746.511719 L 1075.945312 757.160156 L 1108.492188 757.160156 Z M 1127.613281 703.046875 C 1127.613281 702.015625 1128.484375 701.144531 1129.515625 701.144531 C 1130.546875 701.144531 1131.417969 702.015625 1131.417969 703.046875 C 1131.417969 704.078125 1130.546875 704.949219 1129.515625 704.949219 C 1128.484375 704.949219 1127.613281 704.132812 1127.613281 703.046875 Z M 1133.210938 712.878906 C 1131.742188 712.878906 1130.546875 711.683594 1130.546875 710.21875 C 1130.546875 708.75 1131.742188 707.554688 1133.210938 707.554688 C 1134.675781 707.554688 1135.871094 708.75 1135.871094 710.21875 C 1135.871094 711.683594 1134.675781 712.878906 1133.210938 712.878906 Z M 1126.960938 692.34375 C 1137.9375 692.34375 1146.847656 701.960938 1146.847656 713.804688 L 1141.46875 713.804688 C 1141.46875 704.949219 1134.949219 697.722656 1126.960938 697.722656 C 1125.820312 697.722656 1124.734375 697.882812 1123.648438 698.15625 L 1121.855469 693.105469 C 1123.539062 692.613281 1125.222656 692.34375 1126.960938 692.34375 Z M 1113.488281 698.101562 L 1115.824219 703.589844 C 1113.761719 706.359375 1112.511719 709.945312 1112.511719 713.804688 L 1107.132812 713.804688 C 1107.132812 707.609375 1109.578125 702.015625 1113.488281 698.101562 Z M 1113.488281 698.101562 " fill-opacity="1" fill-rule="nonzero"/></g><path fill="#dd1715" d="M 1206.882812 795.160156 L 1223.074219 794.507812 C 1223.183594 794.507812 1223.34375 794.398438 1223.34375 794.234375 C 1223.34375 794.074219 1223.234375 793.964844 1223.074219 793.964844 L 1206.882812 793.3125 L 1206.828125 793.3125 C 1206.339844 793.3125 1205.960938 793.746094 1205.960938 794.234375 C 1205.960938 794.832031 1206.339844 795.214844 1206.882812 795.160156 Z M 1206.882812 795.160156 " fill-opacity="1" fill-rule="nonzero"/><path fill="#dd1715" d="M 1205.523438 805.808594 C 1206.011719 806.515625 1206.558594 807.492188 1206.882812 808.6875 C 1207.046875 809.339844 1207.15625 810.046875 1207.207031 810.859375 C 1207.207031 811.242188 1207.535156 811.511719 1207.914062 811.511719 L 1207.96875 811.511719 C 1208.351562 811.511719 1208.675781 811.1875 1208.621094 810.804688 C 1208.457031 805.808594 1205.144531 803.363281 1204.980469 803.253906 C 1204.65625 803.035156 1204.21875 803.089844 1204.003906 803.417969 C 1203.785156 803.742188 1203.839844 804.179688 1204.167969 804.394531 C 1204.21875 804.449219 1204.871094 804.9375 1205.523438 805.808594 Z M 1205.523438 805.808594 " fill-opacity="1" fill-rule="nonzero"/><g clip-path="url(#0dbfd49444)"><path fill="#dd1715" d="M 1177.597656 876.058594 C 1182 876.003906 1186.292969 875.675781 1190.527344 875.078125 C 1190.3125 873.125 1190.257812 871.113281 1190.148438 869.15625 C 1189.824219 861.441406 1190.746094 853.726562 1194.113281 846.773438 C 1196.558594 841.71875 1200.199219 837.265625 1202.480469 832.15625 C 1203.675781 829.386719 1204.328125 825.476562 1204.601562 823.355469 C 1204.710938 822.488281 1205.414062 821.890625 1206.285156 821.890625 L 1219.757812 821.890625 C 1220.628906 821.890625 1221.335938 822.542969 1221.441406 823.355469 C 1221.714844 825.476562 1222.3125 829.386719 1223.5625 832.15625 C 1225.84375 837.265625 1229.484375 841.71875 1231.929688 846.773438 C 1233.289062 849.597656 1234.265625 852.585938 1234.863281 855.574219 C 1255.507812 838.785156 1268.710938 813.140625 1268.710938 784.457031 L 1268.710938 767.9375 L 1177.597656 767.9375 Z M 1241.109375 822.269531 L 1239.753906 823.246094 C 1239.265625 823.628906 1238.558594 823.628906 1238.070312 823.300781 C 1229.050781 817.324219 1226.222656 807.980469 1225.574219 805.046875 C 1225.464844 804.503906 1225.734375 804.015625 1226.277344 803.851562 L 1230.734375 802.492188 C 1231.332031 802.332031 1231.984375 802.710938 1232.039062 803.363281 L 1232.039062 803.417969 C 1232.636719 809.066406 1235.242188 814.335938 1239.425781 818.25 C 1240.132812 818.902344 1240.730469 819.445312 1241.273438 819.878906 C 1241.925781 820.53125 1241.871094 821.726562 1241.109375 822.269531 Z M 1251.757812 801.839844 C 1251.324219 802.65625 1250.347656 802.929688 1249.53125 802.492188 C 1248.71875 802.058594 1243.71875 798.417969 1244.152344 797.65625 C 1244.589844 796.84375 1250.347656 799.179688 1251.109375 799.613281 C 1251.921875 800.046875 1252.195312 801.082031 1251.757812 801.839844 Z M 1255.671875 792.226562 C 1255.78125 793.148438 1255.128906 793.910156 1254.203125 794.019531 C 1253.28125 794.125 1247.140625 794.019531 1247.03125 793.09375 C 1246.925781 792.171875 1252.953125 790.8125 1253.878906 790.757812 C 1254.746094 790.703125 1255.5625 791.355469 1255.671875 792.226562 Z M 1248.066406 784.238281 C 1248.824219 783.804688 1249.859375 784.019531 1250.292969 784.835938 C 1250.78125 785.597656 1250.511719 786.628906 1249.75 787.0625 C 1248.988281 787.550781 1243.339844 790.050781 1242.847656 789.292969 C 1242.414062 788.53125 1247.304688 784.726562 1248.066406 784.238281 Z M 1235.296875 789.183594 L 1237.308594 789.183594 C 1240.132812 789.183594 1242.632812 791.355469 1242.796875 794.179688 C 1243.011719 797.277344 1240.511719 799.886719 1237.472656 799.886719 L 1235.242188 799.886719 L 1235.242188 789.183594 Z M 1195.960938 795.484375 L 1199.710938 791.734375 C 1201.339844 790.105469 1203.570312 789.183594 1205.90625 789.183594 L 1231.058594 789.183594 C 1231.984375 789.183594 1232.742188 789.941406 1232.742188 790.867188 L 1232.742188 798.800781 C 1232.742188 799.667969 1232.039062 800.429688 1231.167969 800.484375 C 1230.949219 800.484375 1230.734375 800.484375 1230.515625 800.539062 C 1226.820312 800.863281 1221.824219 802.820312 1220.738281 806.839844 C 1220.300781 808.359375 1220.628906 810.046875 1220.628906 811.621094 L 1220.628906 815.207031 L 1222.855469 815.207031 C 1223.617188 815.207031 1224.214844 815.695312 1224.214844 816.292969 L 1224.214844 819.390625 C 1224.214844 819.988281 1223.5625 820.476562 1222.855469 820.476562 L 1202.753906 820.476562 C 1201.992188 820.476562 1201.394531 819.988281 1201.394531 819.390625 L 1201.394531 816.292969 C 1201.394531 815.695312 1201.992188 815.207031 1202.753906 815.207031 L 1204.058594 815.207031 L 1204.058594 812.980469 C 1204.058594 809.828125 1202.375 806.949219 1199.65625 805.371094 L 1197.050781 803.90625 C 1194.0625 802.003906 1193.515625 797.929688 1195.960938 795.484375 Z M 1195.960938 795.484375 " fill-opacity="1" fill-rule="nonzero"/></g><path fill="#f5af23" d="M 1126.960938 799.917969 C 1127.289062 799.753906 1127.667969 799.863281 1127.886719 800.132812 C 1133.863281 809.75 1140.546875 815.347656 1144.183594 818.007812 C 1144.675781 817.628906 1145.164062 817.25 1145.597656 816.8125 C 1145.976562 816.488281 1146.414062 816.109375 1146.847656 815.78125 C 1147.554688 815.183594 1148.316406 814.585938 1149.019531 813.933594 C 1148.042969 813.554688 1147.121094 813.175781 1146.140625 812.628906 C 1141.902344 810.132812 1138.101562 806.4375 1135.167969 801.875 C 1131.144531 795.679688 1126.472656 791.441406 1122.019531 789.976562 C 1121.148438 789.703125 1120.28125 789.539062 1119.355469 789.539062 C 1117.835938 789.539062 1116.257812 789.976562 1114.847656 790.789062 C 1112.566406 792.09375 1110.988281 794.210938 1110.554688 796.601562 C 1109.632812 801.167969 1110.933594 807.359375 1114.195312 813.933594 C 1117.835938 821.269531 1118.214844 827.625 1117.726562 831.917969 C 1119.628906 831.375 1121.582031 830.722656 1123.539062 829.960938 C 1123.160156 825.453125 1121.636719 816.867188 1116.367188 806.816406 C 1116.207031 806.492188 1116.3125 806.109375 1116.640625 805.894531 C 1116.964844 805.730469 1117.347656 805.785156 1117.5625 806.109375 L 1130.546875 826.863281 C 1133.101562 825.5625 1135.601562 824.148438 1138.046875 822.574219 L 1126.691406 800.839844 C 1126.527344 800.515625 1126.636719 800.082031 1126.960938 799.917969 Z M 1126.960938 799.917969 " fill-opacity="1" fill-rule="nonzero"/><g clip-path="url(#618819e571)"><path fill="#f5af23" d="M 1115.660156 783.835938 C 1118.757812 782.804688 1121.09375 783.074219 1124.027344 784.105469 C 1129.84375 786.0625 1135.4375 791.0625 1140.328125 798.503906 C 1142.773438 802.253906 1145.871094 805.296875 1149.292969 807.304688 C 1150.214844 807.847656 1151.300781 808.230469 1152.445312 808.664062 C 1153.476562 809.042969 1154.5625 809.425781 1155.59375 809.914062 L 1157.929688 811.054688 C 1158.09375 811.164062 1158.203125 811.273438 1158.257812 811.488281 C 1158.3125 811.652344 1158.3125 811.871094 1158.203125 812.03125 L 1156.84375 814.261719 C 1155.378906 816.757812 1152.933594 818.769531 1150.757812 820.507812 L 1150.703125 820.5625 C 1150.324219 820.890625 1149.945312 821.214844 1149.617188 821.488281 C 1145.816406 824.691406 1141.6875 827.625 1137.230469 830.179688 C 1130.003906 834.308594 1122.074219 837.40625 1114.304688 839.035156 L 1109.847656 840.011719 C 1109.792969 840.011719 1109.738281 840.011719 1109.6875 840.011719 C 1109.46875 840.011719 1109.304688 839.90625 1109.140625 839.742188 C 1108.980469 839.523438 1108.925781 839.253906 1109.035156 839.035156 L 1110.828125 834.796875 C 1110.933594 834.472656 1113.867188 827.027344 1108.652344 816.597656 C 1104.6875 808.664062 1103.273438 801.277344 1104.46875 795.300781 C 1105.175781 791.875 1106.207031 789.269531 1109.089844 787.09375 C 1107.1875 784.597656 1100.667969 774.328125 1096.699219 767.699219 L 1075.945312 767.699219 L 1075.945312 784.214844 C 1075.945312 834.632812 1116.695312 875.546875 1167.003906 875.871094 L 1167.003906 767.699219 L 1106.152344 767.699219 C 1109.738281 774.054688 1114.140625 781.609375 1115.660156 783.835938 Z M 1115.660156 783.835938 " fill-opacity="1" fill-rule="nonzero"/></g><g clip-path="url(#11213d31f2)"><path fill="#ffffff" d="M 1263.167969 691.636719 L 1263.167969 630.839844 L 1226.007812 630.839844 C 1216.5 630.839844 1208.785156 638.554688 1208.785156 648.0625 L 1177.597656 623.941406 L 1177.597656 757.160156 L 1190.964844 757.160156 C 1191.726562 753.898438 1192.703125 750.75 1193.789062 747.597656 C 1194.496094 745.695312 1195.203125 743.792969 1195.960938 741.945312 C 1196.777344 740.097656 1197.59375 738.253906 1198.515625 736.460938 C 1200.308594 732.820312 1202.320312 729.34375 1204.65625 725.917969 C 1205.199219 725.105469 1205.960938 724.5625 1206.773438 724.234375 L 1210.304688 718.910156 L 1188.738281 681.152344 L 1258.28125 731.894531 L 1216.445312 723.636719 L 1213.078125 728.253906 C 1213.132812 729.179688 1212.914062 730.101562 1212.371094 730.917969 L 1212.316406 730.972656 C 1210.414062 734.015625 1208.675781 737.273438 1207.207031 740.589844 C 1206.394531 742.21875 1205.796875 743.957031 1205.089844 745.640625 C 1204.492188 747.378906 1203.839844 749.0625 1203.296875 750.800781 C 1202.644531 752.921875 1202.046875 755.039062 1201.558594 757.160156 L 1268.601562 757.160156 L 1268.601562 746.511719 L 1308.15625 746.511719 L 1308.15625 725.375 Z M 1236.65625 681.640625 L 1236.980469 674.25 L 1239.644531 681.152344 L 1247.03125 681.476562 L 1240.132812 684.140625 L 1239.808594 691.527344 L 1237.144531 684.628906 L 1229.757812 684.300781 Z M 1231.113281 695.601562 L 1231.332031 691.09375 L 1232.960938 695.332031 L 1237.472656 695.546875 L 1233.234375 697.179688 L 1233.015625 701.6875 L 1231.386719 697.449219 L 1226.875 697.234375 Z M 1213.726562 680.769531 L 1214 674.25 L 1216.335938 680.335938 L 1222.855469 680.609375 L 1216.769531 682.945312 L 1216.5 689.464844 L 1214.164062 683.378906 L 1207.644531 683.105469 Z M 1191.34375 680.714844 L 1197.101562 680.933594 L 1255.941406 723.910156 L 1257.898438 729.34375 Z M 1252.628906 706.089844 L 1252.359375 712.609375 L 1250.019531 706.523438 L 1243.5 706.25 L 1249.585938 703.914062 L 1249.859375 697.394531 L 1252.195312 703.480469 L 1258.714844 703.753906 Z M 1252.628906 706.089844 " fill-opacity="1" fill-rule="nonzero"/></g><g transform="matrix(1, 0, 0, 1, 162, 686)"><g clip-path="url(#a13be4e93a)"><g fill="#ffffff" fill-opacity="1"><g transform="translate(7.618053, 84.417142)"><g><path d="M 2.59375 0 Z M 68.15625 -7.890625 L 68.15625 0 L 21.09375 0 C 17.34375 0 14.160156 -0.28125 11.546875 -0.84375 C 8.941406 -1.40625 6.796875 -2.601562 5.109375 -4.4375 C 3.429688 -6.269531 2.59375 -8.976562 2.59375 -12.5625 C 2.59375 -14.414062 2.796875 -16.515625 3.203125 -18.859375 C 3.609375 -21.210938 4.070312 -23.40625 4.59375 -25.4375 L 11.578125 -25.046875 C 11.273438 -22.628906 11.101562 -21.117188 11.0625 -20.515625 C 10.675781 -17.328125 10.484375 -15.320312 10.484375 -14.5 C 10.484375 -10.09375 13.675781 -7.890625 20.0625 -7.890625 L 32.8125 -7.890625 C 32.082031 -10.523438 31.71875 -13.503906 31.71875 -16.828125 C 31.71875 -20.753906 32.332031 -23.835938 33.5625 -26.078125 C 34.789062 -28.328125 36.65625 -29.925781 39.15625 -30.875 C 41.65625 -31.820312 44.957031 -32.296875 49.0625 -32.296875 C 52.6875 -32.296875 55.859375 -32.144531 58.578125 -31.84375 L 61.9375 -31.453125 L 61.9375 -7.890625 Z M 40.515625 -15.203125 C 40.515625 -13.566406 40.617188 -12.238281 40.828125 -11.21875 C 41.046875 -10.207031 41.351562 -9.097656 41.75 -7.890625 L 53.265625 -7.890625 L 53.265625 -24.40625 C 51.410156 -24.53125 49.921875 -24.59375 48.796875 -24.59375 C 46.460938 -24.59375 44.722656 -24.332031 43.578125 -23.8125 C 42.441406 -23.300781 41.644531 -22.394531 41.1875 -21.09375 C 40.738281 -19.800781 40.515625 -17.835938 40.515625 -15.203125 Z M 46.140625 -46.796875 L 54.109375 -46.796875 L 54.109375 -38.390625 L 46.140625 -38.390625 Z M 46.140625 -46.796875 "/></g></g></g><g fill="#ffffff" fill-opacity="1"><g transform="translate(75.770729, 84.417142)"><g><path d="M 0 0 Z M 28.015625 -7.890625 L 28.015625 0 L 0 0 L 0 -7.890625 L 9.640625 -7.890625 L 9.640625 -32.359375 L 18.3125 -32.359375 L 18.3125 -7.890625 Z M 5.640625 5.171875 L 12.296875 5.171875 L 12.296875 13.265625 L 5.640625 13.265625 Z M 15.46875 5.171875 L 22.140625 5.171875 L 22.140625 13.265625 L 15.46875 13.265625 Z M 15.46875 5.171875 "/></g></g></g><g fill="#ffffff" fill-opacity="1"><g transform="translate(103.795523, 84.417142)"><g><path d="M 0 0 Z M 52.609375 -7.890625 L 52.609375 0 L 0 0 L 0 -7.890625 L 5.4375 -7.890625 L 5.4375 -45.296875 L 14.109375 -45.296875 L 14.109375 -22 C 16.046875 -24.414062 17.800781 -26.378906 19.375 -27.890625 C 20.957031 -29.398438 22.804688 -30.628906 24.921875 -31.578125 C 27.035156 -32.523438 29.472656 -33 32.234375 -33 C 37.671875 -33 41.519531 -31.328125 43.78125 -27.984375 C 46.050781 -24.640625 47.1875 -20.726562 47.1875 -16.25 L 47.1875 -7.890625 Z M 30.28125 -25.109375 C 27.4375 -25.109375 24.804688 -23.941406 22.390625 -21.609375 C 19.972656 -19.285156 17.988281 -16.707031 16.4375 -13.875 C 14.882812 -11.050781 14.109375 -9.253906 14.109375 -8.484375 L 14.109375 -7.890625 L 38.5 -7.890625 L 38.5 -14.5625 C 38.5 -17.539062 37.773438 -20.039062 36.328125 -22.0625 C 34.890625 -24.09375 32.875 -25.109375 30.28125 -25.109375 Z M 20.578125 -46.796875 L 28.546875 -46.796875 L 28.546875 -38.390625 L 20.578125 -38.390625 Z M 20.578125 -46.796875 "/></g></g></g><g fill="#ffffff" fill-opacity="1"><g transform="translate(156.414825, 84.417142)"><g><path d="M 0 0 Z M 28.015625 -7.890625 L 28.015625 0 L 0 0 L 0 -7.890625 L 9.640625 -7.890625 L 9.640625 -32.359375 L 18.3125 -32.359375 L 18.3125 -7.890625 Z M 9.890625 -46.796875 L 17.859375 -46.796875 L 17.859375 -38.390625 L 9.890625 -38.390625 Z M 9.890625 -46.796875 "/></g></g></g><g fill="#ffffff" fill-opacity="1"><g transform="translate(184.439619, 84.417142)"><g><path d="M 0 0 Z M 28.015625 -7.890625 L 28.015625 0 L 0 0 L 0 -7.890625 L 9.640625 -7.890625 L 9.640625 -32.359375 L 18.3125 -32.359375 L 18.3125 -7.890625 Z M 5.640625 -46.46875 L 12.296875 -46.46875 L 12.296875 -38.375 L 5.640625 -38.375 Z M 15.46875 -46.46875 L 22.140625 -46.46875 L 22.140625 -38.375 L 15.46875 -38.375 Z M 15.46875 -46.46875 "/></g></g></g><g fill="#ffffff" fill-opacity="1"><g transform="translate(212.399689, 84.417142)"><g><path d="M 16.625 -45.296875 L 16.625 0 L 0 0 L 0 -7.890625 L 7.953125 -7.890625 L 7.953125 -45.296875 Z M 16.625 -45.296875 "/></g></g></g><g fill="#ffffff" fill-opacity="1"><g transform="translate(234.209362, 84.417142)"><g><path d="M 5.171875 -45.296875 L 13.84375 -45.296875 L 13.84375 0 L 5.171875 0 Z M 5.171875 -45.296875 "/></g></g></g><g fill="#ffffff" fill-opacity="1"><g transform="translate(253.883366, 84.417142)"><g/></g></g><g fill="#ffffff" fill-opacity="1"><g transform="translate(268.121142, 84.417142)"><g><path d="M 3.5 0 Z M 49.96875 -32.359375 L 49.96875 0 L 22 0 C 18.25 0 15.066406 -0.28125 12.453125 -0.84375 C 9.847656 -1.40625 7.703125 -2.59375 6.015625 -4.40625 C 4.335938 -6.21875 3.5 -8.910156 3.5 -12.484375 C 3.5 -14.347656 3.703125 -16.472656 4.109375 -18.859375 C 4.515625 -21.253906 4.976562 -23.445312 5.5 -25.4375 L 12.484375 -25.046875 L 12.03125 -20.96875 C 11.601562 -17.820312 11.390625 -15.664062 11.390625 -14.5 C 11.390625 -10.09375 14.582031 -7.890625 20.96875 -7.890625 L 41.296875 -7.890625 L 41.296875 -32.359375 Z M 18.96875 -40.453125 L 25.625 -40.453125 L 25.625 -32.359375 L 18.96875 -32.359375 Z M 28.796875 -40.453125 L 35.46875 -40.453125 L 35.46875 -32.359375 L 28.796875 -32.359375 Z M 28.796875 -40.453125 "/></g></g></g><g fill="#ffffff" fill-opacity="1"><g transform="translate(322.612977, 84.417142)"><g><path d="M 20.1875 -7.890625 L 20.1875 0 L 5.171875 0 L 5.171875 -45.296875 L 13.84375 -45.296875 L 13.84375 -7.890625 Z M 20.1875 -7.890625 "/></g></g></g><g fill="#ffffff" fill-opacity="1"><g transform="translate(342.806348, 84.417142)"><g><path d="M 24.328125 -32.9375 C 28.773438 -32.9375 32.195312 -32.289062 34.59375 -31 C 36.988281 -29.707031 38.601562 -27.875 39.4375 -25.5 C 40.28125 -23.125 40.703125 -20.015625 40.703125 -16.171875 L 40.703125 0 L 0 0 L 0 -7.890625 L 10.09375 -7.890625 C 9.488281 -11.003906 9.1875 -13.742188 9.1875 -16.109375 C 9.1875 -18.484375 9.421875 -21.03125 9.890625 -23.75 C 10.367188 -26.46875 10.910156 -28.820312 11.515625 -30.8125 C 12.679688 -31.363281 14.40625 -31.851562 16.6875 -32.28125 C 18.976562 -32.71875 21.523438 -32.9375 24.328125 -32.9375 Z M 17.609375 -16.109375 C 17.609375 -14.648438 17.703125 -13.148438 17.890625 -11.609375 C 18.085938 -10.078125 18.296875 -8.835938 18.515625 -7.890625 L 32.03125 -7.890625 L 32.03125 -16.375 C 32.03125 -19.394531 31.4375 -21.613281 30.25 -23.03125 C 29.0625 -24.457031 26.785156 -25.171875 23.421875 -25.171875 C 21.785156 -25.171875 20.148438 -25 18.515625 -24.65625 C 17.910156 -21.414062 17.609375 -18.566406 17.609375 -16.109375 Z M 17.609375 -16.109375 "/></g></g></g><g fill="#ffffff" fill-opacity="1"><g transform="translate(386.749279, 84.417142)"><g><path d="M 38.765625 -7.890625 L 38.765625 0 L 2.59375 0 L 2.59375 -7.890625 L 23.359375 -7.890625 L 23.359375 -10.21875 C 23.359375 -15.832031 22.300781 -19.835938 20.1875 -22.234375 C 18.070312 -24.628906 15.550781 -25.828125 12.625 -25.828125 L 6.078125 -25.828125 L 5.4375 -32.625 C 6.769531 -32.925781 8.289062 -33.203125 10 -33.453125 C 11.707031 -33.710938 13.269531 -33.84375 14.6875 -33.84375 C 18.144531 -33.84375 21.175781 -32.988281 23.78125 -31.28125 C 26.394531 -29.582031 28.421875 -27.03125 29.859375 -23.625 C 31.304688 -20.21875 32.03125 -16.03125 32.03125 -11.0625 L 32.03125 -7.890625 Z M 38.765625 -7.890625 "/></g></g></g><g fill="#ffffff" fill-opacity="1"><g transform="translate(425.517983, 84.417142)"><g><path d="M 0 0 Z M 39.734375 -7.890625 L 39.734375 0 L 0 0 L 0 -7.890625 L 24.40625 -7.890625 L 24.40625 -20.0625 C 24.40625 -21.914062 24.003906 -23.304688 23.203125 -24.234375 C 22.398438 -25.160156 21.03125 -25.625 19.09375 -25.625 C 15.125 -25.5 11.671875 -25.367188 8.734375 -25.234375 L 5.4375 -25.109375 L 5.171875 -30.875 C 7.421875 -31.476562 10.140625 -31.984375 13.328125 -32.390625 C 16.523438 -32.796875 19.222656 -33 21.421875 -33 C 25.472656 -33 28.414062 -32.144531 30.25 -30.4375 C 32.082031 -28.738281 33.023438 -26.035156 33.078125 -22.328125 L 33.078125 -7.890625 Z M 15.984375 -46.796875 L 23.953125 -46.796875 L 23.953125 -38.390625 L 15.984375 -38.390625 Z M 15.984375 -46.796875 "/></g></g></g><g fill="#ffffff" fill-opacity="1"><g transform="translate(465.257558, 84.417142)"><g><path d="M 16.625 -45.296875 L 16.625 0 L 0 0 L 0 -7.890625 L 7.953125 -7.890625 L 7.953125 -45.296875 Z M 16.625 -45.296875 "/></g></g></g><g fill="#ffffff" fill-opacity="1"><g transform="translate(487.067231, 84.417142)"><g/></g></g><g fill="#ffffff" fill-opacity="1"><g transform="translate(501.304977, 84.417142)"><g><path d="M 45.890625 -7.890625 L 45.890625 0 L 42.328125 0 C 41.585938 0 40.894531 -0.253906 40.25 -0.765625 C 39.601562 -1.285156 39.128906 -1.957031 38.828125 -2.78125 L 38.828125 0 L 17.859375 0 C 15.960938 0 14.28125 0.613281 12.8125 1.84375 C 11.34375 3.070312 10.609375 5.4375 10.609375 8.9375 C 10.609375 11.601562 11.191406 15.613281 12.359375 20.96875 L 4.984375 21.234375 C 4.378906 18.597656 3.828125 15.738281 3.328125 12.65625 C 2.835938 9.570312 2.59375 6.992188 2.59375 4.921875 C 2.59375 1.898438 3.140625 -0.546875 4.234375 -2.421875 C 5.335938 -4.304688 6.753906 -5.695312 8.484375 -6.59375 C 7.703125 -9.875 7.3125 -13.046875 7.3125 -16.109375 C 7.3125 -18.484375 7.546875 -21.03125 8.015625 -23.75 C 8.492188 -26.46875 9.035156 -28.820312 9.640625 -30.8125 C 10.804688 -31.363281 12.53125 -31.851562 14.8125 -32.28125 C 17.101562 -32.71875 19.648438 -32.9375 22.453125 -32.9375 C 26.898438 -32.9375 30.320312 -32.289062 32.71875 -31 C 35.113281 -29.707031 36.726562 -27.875 37.5625 -25.5 C 38.40625 -23.125 38.828125 -20.015625 38.828125 -16.171875 L 38.828125 -10.671875 C 39.128906 -9.816406 39.601562 -9.140625 40.25 -8.640625 C 40.894531 -8.140625 41.585938 -7.890625 42.328125 -7.890625 Z M 30.15625 -7.890625 L 30.15625 -16.375 C 30.15625 -19.394531 29.5625 -21.613281 28.375 -23.03125 C 27.1875 -24.457031 24.910156 -25.171875 21.546875 -25.171875 C 19.910156 -25.171875 18.269531 -25 16.625 -24.65625 C 16.03125 -21.414062 15.734375 -18.566406 15.734375 -16.109375 C 15.734375 -14.648438 15.828125 -13.148438 16.015625 -11.609375 C 16.210938 -10.078125 16.414062 -8.835938 16.625 -7.890625 Z M 30.15625 -7.890625 "/></g></g></g><g fill="#ffffff" fill-opacity="1"><g transform="translate(547.193177, 84.417142)"><g><path d="M 0 -7.890625 L 16.171875 -7.890625 L 16.171875 0 L 0 0 Z M 0 -7.890625 "/></g></g></g><g fill="#ffffff" fill-opacity="1"><g transform="translate(563.37379, 84.417142)"><g><path d="M 0 -7.890625 L 16.171875 -7.890625 L 16.171875 0 L 0 0 Z M 0 -7.890625 "/></g></g></g><g fill="#ffffff" fill-opacity="1"><g transform="translate(579.554341, 84.417142)"><g><path d="M 0 -7.890625 L 16.171875 -7.890625 L 16.171875 0 L 0 0 Z M 0 -7.890625 "/></g></g></g><g fill="#ffffff" fill-opacity="1"><g transform="translate(595.734953, 84.417142)"><g><path d="M 0 -7.890625 L 16.171875 -7.890625 L 16.171875 0 L 0 0 Z M 0 -7.890625 "/></g></g></g><g fill="#ffffff" fill-opacity="1"><g transform="translate(611.915566, 84.417142)"><g><path d="M 0 0 Z M 39.734375 -7.890625 L 39.734375 0 L 0 0 L 0 -7.890625 L 24.40625 -7.890625 L 24.40625 -20.0625 C 24.40625 -21.914062 24.003906 -23.304688 23.203125 -24.234375 C 22.398438 -25.160156 21.03125 -25.625 19.09375 -25.625 C 15.125 -25.5 11.671875 -25.367188 8.734375 -25.234375 L 5.4375 -25.109375 L 5.171875 -30.875 C 7.421875 -31.476562 10.140625 -31.984375 13.328125 -32.390625 C 16.523438 -32.796875 19.222656 -33 21.421875 -33 C 25.472656 -33 28.414062 -32.144531 30.25 -30.4375 C 32.082031 -28.738281 33.023438 -26.035156 33.078125 -22.328125 L 33.078125 -7.890625 Z M 15.984375 5.171875 L 23.953125 5.171875 L 23.953125 13.59375 L 15.984375 13.59375 Z M 15.984375 5.171875 "/></g></g></g><g fill="#ffffff" fill-opacity="1"><g transform="translate(651.65514, 84.417142)"><g><path d="M 0 0 Z M 18.3125 -32.359375 L 18.3125 0 L 0 0 L 0 -7.890625 L 9.640625 -7.890625 L 9.640625 -32.359375 Z M 10.09375 -46.796875 L 18.0625 -46.796875 L 18.0625 -38.390625 L 10.09375 -38.390625 Z M 10.09375 -46.796875 "/></g></g></g><g fill="#ffffff" fill-opacity="1"><g transform="translate(674.500262, 84.417142)"><g/></g></g><g fill="#ffffff" fill-opacity="1"><g transform="translate(688.738037, 84.417142)"><g><path d="M 2.59375 0 Z M 42.78125 -7.890625 L 42.78125 0 L 19.9375 0 C 15.664062 0 12.296875 -0.453125 9.828125 -1.359375 C 7.367188 -2.265625 5.546875 -3.914062 4.359375 -6.3125 C 3.179688 -8.707031 2.59375 -12.191406 2.59375 -16.765625 C 2.59375 -21.117188 3.148438 -24.445312 4.265625 -26.75 C 5.390625 -29.0625 7.203125 -30.679688 9.703125 -31.609375 C 12.210938 -32.535156 15.726562 -33 20.25 -33 C 22.664062 -33 25.554688 -32.910156 28.921875 -32.734375 C 32.296875 -32.566406 34.671875 -32.378906 36.046875 -32.171875 L 36.046875 -7.890625 Z M 11.265625 -16.765625 C 11.265625 -14.347656 11.578125 -12.5 12.203125 -11.21875 C 12.828125 -9.945312 13.785156 -9.070312 15.078125 -8.59375 C 16.367188 -8.125 18.140625 -7.890625 20.390625 -7.890625 L 27.375 -7.890625 L 27.375 -24.78125 C 25.21875 -25 22.953125 -25.109375 20.578125 -25.109375 C 18.203125 -25.109375 16.359375 -24.867188 15.046875 -24.390625 C 13.734375 -23.921875 12.773438 -23.09375 12.171875 -21.90625 C 11.566406 -20.71875 11.265625 -19.003906 11.265625 -16.765625 Z M 12.75 -46.46875 L 19.40625 -46.46875 L 19.40625 -38.375 L 12.75 -38.375 Z M 22.578125 -46.46875 L 29.25 -46.46875 L 29.25 -38.375 L 22.578125 -38.375 Z M 22.578125 -46.46875 "/></g></g></g><g fill="#ffffff" fill-opacity="1"><g transform="translate(731.5195, 84.417142)"><g><path d="M 24.859375 -31.390625 C 28.304688 -31.390625 30.957031 -30.460938 32.8125 -28.609375 C 34.664062 -26.753906 35.90625 -24.660156 36.53125 -22.328125 C 37.15625 -19.992188 37.46875 -17.816406 37.46875 -15.796875 L 37.46875 0 L 0 0 L 0 -7.890625 L 28.796875 -7.890625 L 28.796875 -15.859375 C 28.796875 -18.097656 28.265625 -19.929688 27.203125 -21.359375 C 26.148438 -22.785156 24.890625 -23.5 23.421875 -23.5 L 6.078125 -23.5 L 1.625 -29.515625 L 5.5 -37.078125 C 6.363281 -38.804688 7.53125 -40.648438 9 -42.609375 C 10.46875 -44.578125 11.847656 -46.273438 13.140625 -47.703125 L 19.546875 -44.078125 C 17.296875 -40.878906 15.179688 -37.40625 13.203125 -33.65625 L 12.03125 -31.390625 Z M 24.859375 -31.390625 "/></g></g></g><g fill="#ffffff" fill-opacity="1"><g transform="translate(772.873766, 84.417142)"><g><path d="M 28.796875 0 L 18.125 0 C 18.082031 5.09375 17.164062 9.039062 15.375 11.84375 C 13.582031 14.644531 10.894531 16.046875 7.3125 16.046875 C 6.75 16.046875 5.175781 15.960938 2.59375 15.796875 L 2.59375 8.03125 L 4.796875 8.15625 C 6.347656 8.15625 7.507812 7.539062 8.28125 6.3125 C 9.0625 5.082031 9.453125 3.34375 9.453125 1.09375 L 9.453125 -32.359375 L 18.125 -32.359375 L 18.125 -7.890625 L 28.796875 -7.890625 Z M 28.796875 0 "/></g></g></g><g fill="#ffffff" fill-opacity="1"><g transform="translate(801.675212, 84.417142)"><g><path d="M 0 0 Z M 49.828125 -32.421875 C 50.304688 -29.660156 50.726562 -26.851562 51.09375 -24 C 51.457031 -21.15625 51.640625 -19.148438 51.640625 -17.984375 L 51.640625 0 L 38.3125 0 C 36.882812 0 35.515625 -0.234375 34.203125 -0.703125 C 32.890625 -1.179688 31.820312 -1.742188 31 -2.390625 C 29.269531 -0.796875 27.113281 0 24.53125 0 L 0 0 L 0 -7.890625 L 9.90625 -7.890625 L 9.90625 -29.125 L 18.578125 -29.125 L 18.578125 -7.890625 L 21.546875 -7.890625 C 23.191406 -7.890625 24.457031 -8.546875 25.34375 -9.859375 C 26.226562 -11.179688 26.671875 -12.878906 26.671875 -14.953125 L 26.671875 -29.125 L 35.34375 -29.125 L 35.34375 -14.953125 C 35.34375 -12.753906 35.125 -10.789062 34.6875 -9.0625 C 35.070312 -8.757812 35.578125 -8.488281 36.203125 -8.25 C 36.835938 -8.007812 37.476562 -7.890625 38.125 -7.890625 L 42.96875 -7.890625 L 42.96875 -16.765625 C 42.96875 -19.523438 42.925781 -21.863281 42.84375 -23.78125 C 42.757812 -25.707031 42.566406 -28.476562 42.265625 -32.09375 Z M 28.015625 -55.078125 L 34.234375 -55.078125 L 34.234375 -47.828125 L 28.015625 -47.828125 Z M 22.84375 -46.140625 L 29.5 -46.140625 L 29.5 -38.375 L 22.84375 -38.375 Z M 32.671875 -46.140625 L 39.34375 -46.140625 L 39.34375 -38.375 L 32.671875 -38.375 Z M 32.671875 -46.140625 "/></g></g></g><g fill="#ffffff" fill-opacity="1"><g transform="translate(0.127036, 174.620829)"><g><path d="M 40.0625 -44.015625 L 40.0625 0 L 25.375 0 L 14.375 -36.25 L 13.71875 -36.25 L 13.71875 0 L 4.796875 0 L 4.796875 -44.015625 L 19.875 -44.015625 L 30.484375 -7.765625 L 31.125 -7.765625 L 31.125 -44.015625 Z M 40.0625 -44.015625 "/></g></g></g><g fill="#ffffff" fill-opacity="1"><g transform="translate(47.888713, 174.620829)"><g><path d="M 11.90625 0.78125 C 5.21875 0.78125 1.875 -2.757812 1.875 -9.84375 C 1.875 -13.207031 2.769531 -15.628906 4.5625 -17.109375 C 6.351562 -18.597656 9.234375 -19.472656 13.203125 -19.734375 L 20.125 -20.25 L 20.125 -22.265625 C 20.125 -23.554688 19.832031 -24.460938 19.25 -24.984375 C 18.664062 -25.503906 17.6875 -25.765625 16.3125 -25.765625 C 14.882812 -25.765625 12.921875 -25.707031 10.421875 -25.59375 C 7.921875 -25.488281 5.828125 -25.367188 4.140625 -25.234375 L 3.890625 -31.265625 C 8.546875 -32.515625 12.941406 -33.140625 17.078125 -33.140625 C 21.222656 -33.140625 24.210938 -32.273438 26.046875 -30.546875 C 27.878906 -28.816406 28.796875 -26.054688 28.796875 -22.265625 L 28.796875 -8.796875 C 28.878906 -7.722656 29.0625 -6.988281 29.34375 -6.59375 C 29.625 -6.207031 30.15625 -5.929688 30.9375 -5.765625 L 30.671875 0.78125 C 28.429688 0.78125 26.648438 0.628906 25.328125 0.328125 C 24.015625 0.0234375 22.710938 -0.578125 21.421875 -1.484375 C 18.273438 0.0234375 15.101562 0.78125 11.90625 0.78125 Z M 13.78125 -6.28125 C 15.425781 -6.28125 17.21875 -6.535156 19.15625 -7.046875 L 20.125 -7.3125 L 20.125 -14.234375 L 14.234375 -13.71875 C 11.816406 -13.5 10.609375 -12.207031 10.609375 -9.84375 C 10.609375 -7.46875 11.664062 -6.28125 13.78125 -6.28125 Z M 13.78125 -6.28125 "/></g></g></g><g fill="#ffffff" fill-opacity="1"><g transform="translate(83.871875, 174.620829)"><g><path d="M 0 0 Z M -2.203125 8.484375 C -0.253906 7.179688 1.132812 6.097656 1.96875 5.234375 C 2.8125 4.378906 3.375 3.472656 3.65625 2.515625 C 3.9375 1.566406 4.078125 0.210938 4.078125 -1.546875 L 4.078125 -32.359375 L 12.75 -32.359375 L 12.75 -1.484375 C 12.75 1.535156 12.425781 3.9375 11.78125 5.71875 C 11.132812 7.507812 10.019531 9.070312 8.4375 10.40625 C 6.863281 11.75 4.460938 13.242188 1.234375 14.890625 Z M 4.078125 -45.234375 L 12.75 -45.234375 L 12.75 -36.5 L 4.078125 -36.5 Z M 4.078125 -45.234375 "/></g></g></g><g fill="#ffffff" fill-opacity="1"><g transform="translate(103.546313, 174.620829)"><g><path d="M 4.015625 -32.359375 L 12.625 -32.359375 L 12.625 -30.546875 C 14.21875 -31.453125 15.609375 -32.109375 16.796875 -32.515625 C 17.984375 -32.929688 19.222656 -33.140625 20.515625 -33.140625 C 22.023438 -33.140625 23.476562 -32.890625 24.875 -32.390625 C 26.28125 -31.890625 27.4375 -31.125 28.34375 -30.09375 C 30.375 -31.125 32.285156 -31.890625 34.078125 -32.390625 C 35.867188 -32.890625 37.691406 -33.140625 39.546875 -33.140625 C 43.554688 -33.140625 46.398438 -31.910156 48.078125 -29.453125 C 49.765625 -26.992188 50.609375 -23.019531 50.609375 -17.53125 L 50.609375 0 L 41.9375 0 L 41.9375 -17.28125 C 41.9375 -20.164062 41.613281 -22.234375 40.96875 -23.484375 C 40.320312 -24.742188 39.113281 -25.375 37.34375 -25.375 C 36.09375 -25.375 34.429688 -25.070312 32.359375 -24.46875 L 31.390625 -24.140625 C 31.554688 -21.242188 31.640625 -18.785156 31.640625 -16.765625 L 31.640625 0 L 22.96875 0 L 22.96875 -16.625 C 22.96875 -18.957031 22.847656 -20.726562 22.609375 -21.9375 C 22.378906 -23.144531 21.925781 -24.019531 21.25 -24.5625 C 20.582031 -25.101562 19.582031 -25.375 18.25 -25.375 C 16.863281 -25.375 15.269531 -25.070312 13.46875 -24.46875 L 12.6875 -24.203125 L 12.6875 0 L 4.015625 0 Z M 4.015625 -32.359375 "/></g></g></g><g fill="#ffffff" fill-opacity="1"><g transform="translate(160.756696, 174.620829)"><g/></g></g><g fill="#ffffff" fill-opacity="1"><g transform="translate(177.90716, 174.620829)"><g><path d="M 13.71875 -36.25 L 13.71875 -23.296875 L 29.375 -23.296875 L 29.375 -15.53125 L 13.71875 -15.53125 L 13.71875 0 L 4.796875 0 L 4.796875 -44.015625 L 32.875 -44.015625 L 32.875 -36.25 Z M 13.71875 -36.25 "/></g></g></g><g fill="#ffffff" fill-opacity="1"><g transform="translate(215.184654, 174.620829)"><g><path d="M 21.09375 0.78125 C 16.65625 0.78125 13.097656 -0.015625 10.421875 -1.609375 C 7.742188 -3.210938 5.8125 -5.664062 4.625 -8.96875 C 3.4375 -12.269531 2.84375 -16.550781 2.84375 -21.8125 C 2.84375 -27.113281 3.4375 -31.4375 4.625 -34.78125 C 5.8125 -38.125 7.742188 -40.625 10.421875 -42.28125 C 13.097656 -43.945312 16.65625 -44.78125 21.09375 -44.78125 C 25.539062 -44.78125 29.101562 -43.945312 31.78125 -42.28125 C 34.457031 -40.625 36.382812 -38.125 37.5625 -34.78125 C 38.75 -31.4375 39.34375 -27.113281 39.34375 -21.8125 C 39.34375 -16.632812 38.769531 -12.40625 37.625 -9.125 C 36.488281 -5.84375 34.582031 -3.367188 31.90625 -1.703125 C 29.226562 -0.046875 25.625 0.78125 21.09375 0.78125 Z M 21.09375 -6.984375 C 23.425781 -6.984375 25.25 -7.46875 26.5625 -8.4375 C 27.882812 -9.414062 28.8125 -10.972656 29.34375 -13.109375 C 29.882812 -15.242188 30.15625 -18.144531 30.15625 -21.8125 C 30.15625 -25.476562 29.875 -28.398438 29.3125 -30.578125 C 28.75 -32.753906 27.8125 -34.367188 26.5 -35.421875 C 25.1875 -36.484375 23.382812 -37.015625 21.09375 -37.015625 C 18.8125 -37.015625 17.007812 -36.484375 15.6875 -35.421875 C 14.375 -34.367188 13.4375 -32.753906 12.875 -30.578125 C 12.3125 -28.398438 12.03125 -25.476562 12.03125 -21.8125 C 12.03125 -18.40625 12.269531 -15.644531 12.75 -13.53125 C 13.226562 -11.414062 14.125 -9.796875 15.4375 -8.671875 C 16.75 -7.546875 18.632812 -6.984375 21.09375 -6.984375 Z M 21.09375 -6.984375 "/></g></g></g><g fill="#ffffff" fill-opacity="1"><g transform="translate(260.292945, 174.620829)"><g><path d="M 4.796875 -44.015625 L 21.875 -44.015625 C 32.226562 -44.015625 37.40625 -39.179688 37.40625 -29.515625 C 37.40625 -23.773438 35.25 -19.546875 30.9375 -16.828125 L 37.21875 0 L 27.4375 0 L 22.328125 -14.75 L 13.71875 -14.75 L 13.71875 0 L 4.796875 0 Z M 22 -22.390625 C 24.03125 -22.390625 25.582031 -23.023438 26.65625 -24.296875 C 27.738281 -25.578125 28.28125 -27.296875 28.28125 -29.453125 C 28.28125 -31.609375 27.71875 -33.300781 26.59375 -34.53125 C 25.476562 -35.757812 23.90625 -36.375 21.875 -36.375 L 13.71875 -36.375 L 13.71875 -22.390625 Z M 22 -22.390625 "/></g></g></g><g fill="#ffffff" fill-opacity="1"><g transform="translate(303.330251, 174.620829)"><g/></g></g><g fill="#ffffff" fill-opacity="1"><g transform="translate(320.48073, 174.620829)"><g><path d="M 20.328125 0.78125 C 15.660156 0.78125 12.078125 -0.0351562 9.578125 -1.671875 C 7.078125 -3.316406 5.363281 -5.742188 4.4375 -8.953125 C 3.507812 -12.171875 3.046875 -16.457031 3.046875 -21.8125 C 3.046875 -27.675781 3.550781 -32.25 4.5625 -35.53125 C 5.570312 -38.8125 7.265625 -41.171875 9.640625 -42.609375 C 12.015625 -44.054688 15.335938 -44.78125 19.609375 -44.78125 C 23.535156 -44.78125 27.914062 -44.195312 32.75 -43.03125 L 32.484375 -35.921875 C 28.210938 -36.566406 24.738281 -36.890625 22.0625 -36.890625 C 19.34375 -36.890625 17.289062 -36.457031 15.90625 -35.59375 C 14.53125 -34.726562 13.570312 -33.3125 13.03125 -31.34375 C 12.5 -29.382812 12.234375 -26.617188 12.234375 -23.046875 L 12.234375 -20.640625 C 12.316406 -16.929688 12.582031 -14.160156 13.03125 -12.328125 C 13.488281 -10.492188 14.382812 -9.164062 15.71875 -8.34375 C 17.0625 -7.53125 19.113281 -7.125 21.875 -7.125 C 24.8125 -7.125 28.347656 -7.425781 32.484375 -8.03125 L 32.6875 -0.71875 C 27.976562 0.28125 23.859375 0.78125 20.328125 0.78125 Z M 20.328125 0.78125 "/></g></g></g><g fill="#ffffff" fill-opacity="1"><g transform="translate(358.534832, 174.620829)"><g><path d="M 4.40625 -45.296875 L 13.078125 -45.296875 L 13.078125 0 L 4.40625 0 Z M 4.40625 -45.296875 "/></g></g></g><g fill="#ffffff" fill-opacity="1"><g transform="translate(378.921172, 174.620829)"><g><path d="M 16.703125 0.78125 C 11.648438 0.78125 8 -0.488281 5.75 -3.03125 C 3.507812 -5.582031 2.390625 -9.707031 2.390625 -15.40625 C 2.390625 -21.351562 3.566406 -25.796875 5.921875 -28.734375 C 8.273438 -31.671875 11.929688 -33.140625 16.890625 -33.140625 C 21.460938 -33.140625 24.925781 -31.921875 27.28125 -29.484375 C 29.632812 -27.046875 30.8125 -23.390625 30.8125 -18.515625 L 30.15625 -12.484375 L 11.125 -12.484375 C 11.21875 -10.972656 11.488281 -9.816406 11.9375 -9.015625 C 12.394531 -8.222656 13.128906 -7.664062 14.140625 -7.34375 C 15.148438 -7.019531 16.5625 -6.859375 18.375 -6.859375 C 19.800781 -6.859375 21.503906 -6.898438 23.484375 -6.984375 C 25.472656 -7.078125 26.921875 -7.164062 27.828125 -7.25 L 29.640625 -7.4375 L 29.765625 -1.03125 C 24.890625 0.175781 20.535156 0.78125 16.703125 0.78125 Z M 22.265625 -19.09375 C 22.265625 -21.675781 21.863281 -23.472656 21.0625 -24.484375 C 20.269531 -25.503906 18.859375 -26.015625 16.828125 -26.015625 C 14.753906 -26.015625 13.285156 -25.484375 12.421875 -24.421875 C 11.554688 -23.367188 11.101562 -21.59375 11.0625 -19.09375 Z M 22.265625 -19.09375 "/></g></g></g><g fill="#ffffff" fill-opacity="1"><g transform="translate(414.839621, 174.620829)"><g><path d="M 11.90625 0.78125 C 5.21875 0.78125 1.875 -2.757812 1.875 -9.84375 C 1.875 -13.207031 2.769531 -15.628906 4.5625 -17.109375 C 6.351562 -18.597656 9.234375 -19.472656 13.203125 -19.734375 L 20.125 -20.25 L 20.125 -22.265625 C 20.125 -23.554688 19.832031 -24.460938 19.25 -24.984375 C 18.664062 -25.503906 17.6875 -25.765625 16.3125 -25.765625 C 14.882812 -25.765625 12.921875 -25.707031 10.421875 -25.59375 C 7.921875 -25.488281 5.828125 -25.367188 4.140625 -25.234375 L 3.890625 -31.265625 C 8.546875 -32.515625 12.941406 -33.140625 17.078125 -33.140625 C 21.222656 -33.140625 24.210938 -32.273438 26.046875 -30.546875 C 27.878906 -28.816406 28.796875 -26.054688 28.796875 -22.265625 L 28.796875 -8.796875 C 28.878906 -7.722656 29.0625 -6.988281 29.34375 -6.59375 C 29.625 -6.207031 30.15625 -5.929688 30.9375 -5.765625 L 30.671875 0.78125 C 28.429688 0.78125 26.648438 0.628906 25.328125 0.328125 C 24.015625 0.0234375 22.710938 -0.578125 21.421875 -1.484375 C 18.273438 0.0234375 15.101562 0.78125 11.90625 0.78125 Z M 13.78125 -6.28125 C 15.425781 -6.28125 17.21875 -6.535156 19.15625 -7.046875 L 20.125 -7.3125 L 20.125 -14.234375 L 14.234375 -13.71875 C 11.816406 -13.5 10.609375 -12.207031 10.609375 -9.84375 C 10.609375 -7.46875 11.664062 -6.28125 13.78125 -6.28125 Z M 13.78125 -6.28125 "/></g></g></g><g fill="#ffffff" fill-opacity="1"><g transform="translate(450.822798, 174.620829)"><g><path d="M 4.015625 -32.359375 L 12.625 -32.359375 L 12.625 -30.546875 C 14.257812 -31.492188 15.710938 -32.160156 16.984375 -32.546875 C 18.253906 -32.941406 19.625 -33.140625 21.09375 -33.140625 C 25.0625 -33.140625 27.882812 -31.863281 29.5625 -29.3125 C 31.25 -26.769531 32.09375 -22.84375 32.09375 -17.53125 L 32.09375 0 L 23.421875 0 L 23.421875 -17.28125 C 23.421875 -20.257812 23.066406 -22.351562 22.359375 -23.5625 C 21.648438 -24.769531 20.300781 -25.375 18.3125 -25.375 C 16.882812 -25.375 15.269531 -25.070312 13.46875 -24.46875 L 12.6875 -24.203125 L 12.6875 0 L 4.015625 0 Z M 4.015625 -32.359375 "/></g></g></g><g fill="#ffffff" fill-opacity="1"><g transform="translate(489.524066, 174.620829)"><g><path d="M 4.015625 0 Z M 4.015625 -32.359375 L 12.6875 -32.359375 L 12.6875 0 L 4.015625 0 Z M 4.015625 -45.234375 L 12.6875 -45.234375 L 12.6875 -36.5 L 4.015625 -36.5 Z M 4.015625 -45.234375 "/></g></g></g><g fill="#ffffff" fill-opacity="1"><g transform="translate(509.133783, 174.620829)"><g><path d="M 4.015625 -32.359375 L 12.625 -32.359375 L 12.625 -30.546875 C 14.257812 -31.492188 15.710938 -32.160156 16.984375 -32.546875 C 18.253906 -32.941406 19.625 -33.140625 21.09375 -33.140625 C 25.0625 -33.140625 27.882812 -31.863281 29.5625 -29.3125 C 31.25 -26.769531 32.09375 -22.84375 32.09375 -17.53125 L 32.09375 0 L 23.421875 0 L 23.421875 -17.28125 C 23.421875 -20.257812 23.066406 -22.351562 22.359375 -23.5625 C 21.648438 -24.769531 20.300781 -25.375 18.3125 -25.375 C 16.882812 -25.375 15.269531 -25.070312 13.46875 -24.46875 L 12.6875 -24.203125 L 12.6875 0 L 4.015625 0 Z M 4.015625 -32.359375 "/></g></g></g><g fill="#ffffff" fill-opacity="1"><g transform="translate(547.835051, 174.620829)"><g><path d="M 17.015625 14.890625 C 12.398438 14.890625 8.804688 14.207031 6.234375 12.84375 C 3.671875 11.488281 2.390625 9.28125 2.390625 6.21875 C 2.390625 4.613281 2.765625 3.195312 3.515625 1.96875 C 4.273438 0.738281 5.453125 -0.519531 7.046875 -1.8125 C 6.273438 -2.332031 5.679688 -3 5.265625 -3.8125 C 4.859375 -4.632812 4.65625 -5.5 4.65625 -6.40625 C 4.65625 -7.050781 4.816406 -7.71875 5.140625 -8.40625 C 5.460938 -9.101562 6.144531 -10.269531 7.1875 -11.90625 C 4.25 -14.0625 2.78125 -17.210938 2.78125 -21.359375 C 2.78125 -25.285156 3.976562 -28.207031 6.375 -30.125 C 8.769531 -32.039062 12.101562 -33 16.375 -33 C 18.1875 -33 20.363281 -32.722656 22.90625 -32.171875 L 33.328125 -32.484375 L 33.328125 -25.5625 L 28.46875 -25.953125 C 29.03125 -25.046875 29.410156 -24.269531 29.609375 -23.625 C 29.804688 -22.976562 29.90625 -22.09375 29.90625 -20.96875 C 29.90625 -17.082031 28.800781 -14.304688 26.59375 -12.640625 C 24.394531 -10.984375 21.050781 -10.15625 16.5625 -10.15625 C 15.269531 -10.15625 14.28125 -10.242188 13.59375 -10.421875 C 13.15625 -9.378906 12.9375 -8.492188 12.9375 -7.765625 C 12.9375 -6.859375 13.378906 -6.304688 14.265625 -6.109375 C 15.148438 -5.921875 16.800781 -5.804688 19.21875 -5.765625 C 22.539062 -5.671875 25.179688 -5.410156 27.140625 -4.984375 C 29.109375 -4.554688 30.628906 -3.679688 31.703125 -2.359375 C 32.785156 -1.046875 33.328125 0.882812 33.328125 3.4375 C 33.328125 7.351562 31.988281 10.238281 29.3125 12.09375 C 26.644531 13.957031 22.546875 14.890625 17.015625 14.890625 Z M 16.4375 -16.765625 C 19.71875 -16.765625 21.359375 -18.359375 21.359375 -21.546875 C 21.359375 -24.703125 19.71875 -26.28125 16.4375 -26.28125 C 13.113281 -26.28125 11.453125 -24.703125 11.453125 -21.546875 C 11.453125 -18.359375 13.113281 -16.765625 16.4375 -16.765625 Z M 17.609375 7.765625 C 20.066406 7.765625 21.84375 7.484375 22.9375 6.921875 C 24.039062 6.359375 24.59375 5.5 24.59375 4.34375 C 24.59375 3.257812 24.191406 2.578125 23.390625 2.296875 C 22.597656 2.015625 21.671875 1.851562 20.609375 1.8125 C 19.554688 1.769531 18.859375 1.75 18.515625 1.75 L 12.6875 1.296875 C 11.519531 2.460938 10.9375 3.628906 10.9375 4.796875 C 10.9375 5.828125 11.484375 6.578125 12.578125 7.046875 C 13.679688 7.523438 15.359375 7.765625 17.609375 7.765625 Z M 17.609375 7.765625 "/></g></g></g><g fill="#ffffff" fill-opacity="1"><g transform="translate(585.306686, 174.620829)"><g/></g></g><g fill="#ffffff" fill-opacity="1"><g transform="translate(602.457195, 174.620829)"><g><path d="M 17.609375 0.78125 C 14.242188 0.78125 10.125 0.257812 5.25 -0.78125 L 2.90625 -1.234375 L 3.8125 -8.15625 C 9.59375 -7.375 14.015625 -6.984375 17.078125 -6.984375 C 21.660156 -6.984375 23.953125 -8.882812 23.953125 -12.6875 C 23.953125 -14.238281 23.347656 -15.378906 22.140625 -16.109375 C 20.929688 -16.847656 18.898438 -17.625 16.046875 -18.4375 C 12.640625 -19.394531 9.953125 -20.453125 7.984375 -21.609375 C 6.023438 -22.773438 4.601562 -24.15625 3.71875 -25.75 C 2.832031 -27.351562 2.390625 -29.34375 2.390625 -31.71875 C 2.390625 -36.03125 3.707031 -39.285156 6.34375 -41.484375 C 8.976562 -43.679688 12.664062 -44.78125 17.40625 -44.78125 C 19.257812 -44.78125 21.175781 -44.660156 23.15625 -44.421875 C 25.144531 -44.191406 28.0625 -43.726562 31.90625 -43.03125 L 31.1875 -35.984375 C 25.28125 -36.671875 20.988281 -37.015625 18.3125 -37.015625 C 13.613281 -37.015625 11.265625 -35.460938 11.265625 -32.359375 C 11.265625 -31.273438 11.648438 -30.390625 12.421875 -29.703125 C 13.203125 -29.015625 14.171875 -28.441406 15.328125 -27.984375 C 16.492188 -27.535156 18.460938 -26.878906 21.234375 -26.015625 C 24.203125 -25.066406 26.503906 -24.070312 28.140625 -23.03125 C 29.785156 -22 30.972656 -20.71875 31.703125 -19.1875 C 32.441406 -17.65625 32.8125 -15.679688 32.8125 -13.265625 C 32.8125 -8.734375 31.441406 -5.257812 28.703125 -2.84375 C 25.960938 -0.425781 22.265625 0.78125 17.609375 0.78125 Z M 17.609375 0.78125 "/></g></g></g><g fill="#ffffff" fill-opacity="1"><g transform="translate(640.575996, 174.620829)"><g><path d="M 16.703125 0.78125 C 11.648438 0.78125 8 -0.488281 5.75 -3.03125 C 3.507812 -5.582031 2.390625 -9.707031 2.390625 -15.40625 C 2.390625 -21.351562 3.566406 -25.796875 5.921875 -28.734375 C 8.273438 -31.671875 11.929688 -33.140625 16.890625 -33.140625 C 21.460938 -33.140625 24.925781 -31.921875 27.28125 -29.484375 C 29.632812 -27.046875 30.8125 -23.390625 30.8125 -18.515625 L 30.15625 -12.484375 L 11.125 -12.484375 C 11.21875 -10.972656 11.488281 -9.816406 11.9375 -9.015625 C 12.394531 -8.222656 13.128906 -7.664062 14.140625 -7.34375 C 15.148438 -7.019531 16.5625 -6.859375 18.375 -6.859375 C 19.800781 -6.859375 21.503906 -6.898438 23.484375 -6.984375 C 25.472656 -7.078125 26.921875 -7.164062 27.828125 -7.25 L 29.640625 -7.4375 L 29.765625 -1.03125 C 24.890625 0.175781 20.535156 0.78125 16.703125 0.78125 Z M 22.265625 -19.09375 C 22.265625 -21.675781 21.863281 -23.472656 21.0625 -24.484375 C 20.269531 -25.503906 18.859375 -26.015625 16.828125 -26.015625 C 14.753906 -26.015625 13.285156 -25.484375 12.421875 -24.421875 C 11.554688 -23.367188 11.101562 -21.59375 11.0625 -19.09375 Z M 22.265625 -19.09375 "/></g></g></g><g fill="#ffffff" fill-opacity="1"><g transform="translate(676.494444, 174.620829)"><g><path d="M 4.015625 -32.359375 L 12.625 -32.359375 L 12.625 -28.921875 C 16.332031 -31.085938 19.78125 -32.492188 22.96875 -33.140625 L 22.96875 -24.40625 C 19.738281 -23.75 16.742188 -22.992188 13.984375 -22.140625 L 12.6875 -21.6875 L 12.6875 0 L 4.015625 0 Z M 4.015625 -32.359375 "/></g></g></g><g fill="#ffffff" fill-opacity="1"><g transform="translate(703.481903, 174.620829)"><g><path d="M 0.96875 -32.359375 L 10.03125 -32.359375 L 15.203125 -7.375 L 17.015625 -7.375 L 22.453125 -32.359375 L 31.265625 -32.359375 L 23.5 0 L 8.734375 0 Z M 0.96875 -32.359375 "/></g></g></g><g fill="#ffffff" fill-opacity="1"><g transform="translate(738.623727, 174.620829)"><g><path d="M 4.015625 0 Z M 4.015625 -32.359375 L 12.6875 -32.359375 L 12.6875 0 L 4.015625 0 Z M 4.015625 -45.234375 L 12.6875 -45.234375 L 12.6875 -36.5 L 4.015625 -36.5 Z M 4.015625 -45.234375 "/></g></g></g><g fill="#ffffff" fill-opacity="1"><g transform="translate(758.233505, 174.620829)"><g><path d="M 15.734375 0.78125 C 11.066406 0.78125 7.6875 -0.566406 5.59375 -3.265625 C 3.5 -5.960938 2.453125 -10.265625 2.453125 -16.171875 C 2.453125 -22.171875 3.53125 -26.5 5.6875 -29.15625 C 7.851562 -31.8125 11.375 -33.140625 16.25 -33.140625 C 17.5 -33.140625 18.878906 -33.03125 20.390625 -32.8125 C 21.898438 -32.59375 23.925781 -32.226562 26.46875 -31.71875 L 26.21875 -24.859375 C 22.539062 -25.203125 19.992188 -25.375 18.578125 -25.375 C 16.585938 -25.375 15.070312 -25.101562 14.03125 -24.5625 C 13 -24.019531 12.28125 -23.101562 11.875 -21.8125 C 11.46875 -20.519531 11.265625 -18.664062 11.265625 -16.25 C 11.265625 -13.789062 11.46875 -11.910156 11.875 -10.609375 C 12.28125 -9.316406 13.007812 -8.390625 14.0625 -7.828125 C 15.125 -7.265625 16.671875 -6.984375 18.703125 -6.984375 L 26.21875 -7.5 L 26.46875 -0.578125 C 21.894531 0.328125 18.316406 0.78125 15.734375 0.78125 Z M 15.734375 0.78125 "/></g></g></g><g fill="#ffffff" fill-opacity="1"><g transform="translate(790.010041, 174.620829)"><g><path d="M 16.703125 0.78125 C 11.648438 0.78125 8 -0.488281 5.75 -3.03125 C 3.507812 -5.582031 2.390625 -9.707031 2.390625 -15.40625 C 2.390625 -21.351562 3.566406 -25.796875 5.921875 -28.734375 C 8.273438 -31.671875 11.929688 -33.140625 16.890625 -33.140625 C 21.460938 -33.140625 24.925781 -31.921875 27.28125 -29.484375 C 29.632812 -27.046875 30.8125 -23.390625 30.8125 -18.515625 L 30.15625 -12.484375 L 11.125 -12.484375 C 11.21875 -10.972656 11.488281 -9.816406 11.9375 -9.015625 C 12.394531 -8.222656 13.128906 -7.664062 14.140625 -7.34375 C 15.148438 -7.019531 16.5625 -6.859375 18.375 -6.859375 C 19.800781 -6.859375 21.503906 -6.898438 23.484375 -6.984375 C 25.472656 -7.078125 26.921875 -7.164062 27.828125 -7.25 L 29.640625 -7.4375 L 29.765625 -1.03125 C 24.890625 0.175781 20.535156 0.78125 16.703125 0.78125 Z M 22.265625 -19.09375 C 22.265625 -21.675781 21.863281 -23.472656 21.0625 -24.484375 C 20.269531 -25.503906 18.859375 -26.015625 16.828125 -26.015625 C 14.753906 -26.015625 13.285156 -25.484375 12.421875 -24.421875 C 11.554688 -23.367188 11.101562 -21.59375 11.0625 -19.09375 Z M 22.265625 -19.09375 "/></g></g></g><g fill="#ffffff" fill-opacity="1"><g transform="translate(825.928489, 174.620829)"><g><path d="M 15.34375 0.78125 C 12.488281 0.78125 9.015625 0.390625 4.921875 -0.390625 L 2.84375 -0.78125 L 3.109375 -8.03125 C 8.328125 -7.332031 12.125 -6.984375 14.5 -6.984375 C 16.09375 -6.984375 17.351562 -7.15625 18.28125 -7.5 C 19.207031 -7.851562 19.671875 -8.503906 19.671875 -9.453125 C 19.671875 -10.316406 19.226562 -10.941406 18.34375 -11.328125 C 17.457031 -11.710938 15.984375 -12.078125 13.921875 -12.421875 C 13.140625 -12.515625 12.597656 -12.601562 12.296875 -12.6875 C 10.140625 -13.070312 8.367188 -13.554688 6.984375 -14.140625 C 5.609375 -14.722656 4.488281 -15.648438 3.625 -16.921875 C 2.757812 -18.191406 2.328125 -19.972656 2.328125 -22.265625 C 2.328125 -25.929688 3.445312 -28.648438 5.6875 -30.421875 C 7.9375 -32.191406 11.023438 -33.078125 14.953125 -33.078125 C 17.273438 -33.078125 20.703125 -32.664062 25.234375 -31.84375 L 27.375 -31.453125 L 27.25 -24.265625 C 22.03125 -24.960938 18.164062 -25.3125 15.65625 -25.3125 C 14.195312 -25.3125 13.046875 -25.160156 12.203125 -24.859375 C 11.359375 -24.554688 10.9375 -23.972656 10.9375 -23.109375 C 10.9375 -22.203125 11.367188 -21.5625 12.234375 -21.1875 C 13.097656 -20.820312 14.5 -20.46875 16.4375 -20.125 L 18.703125 -19.734375 C 22.148438 -19.046875 24.609375 -18.019531 26.078125 -16.65625 C 27.546875 -15.300781 28.28125 -13.113281 28.28125 -10.09375 C 28.28125 -6.382812 27.222656 -3.644531 25.109375 -1.875 C 22.992188 -0.101562 19.738281 0.78125 15.34375 0.78125 Z M 15.34375 0.78125 "/></g></g></g><g fill="#ffffff" fill-opacity="1"><g transform="translate(859.39036, 174.620829)"><g/></g></g></g></g></svg>